<?xml version="1.0" encoding="utf-8"?>
<!-- Generator: Adobe Illustrator 25.0.0, SVG Export Plug-In . SVG Version: 6.00 Build 0)  -->
<svg version="1.1" id="Layer_1" xmlns="http://www.w3.org/2000/svg" xmlns:xlink="http://www.w3.org/1999/xlink" x="0px" y="0px"
	 viewBox="0 0 79.4 47.1" style="enable-background:new 0 0 79.4 47.1;" xml:space="preserve">
<polygon points="1.8,11.6 0,16.9 16.8,16.9 3.8,47.1 10.5,47.1 25.6,11.6 "/>
<g>
	<path d="M33.4,0c-2.3,0-4.1,1.8-4.1,4.1s1.8,4.1,4.1,4.1s4.1-1.8,4.1-4.1S35.6,0,33.4,0"/>
	<rect x="30.2" y="11.6" width="6.4" height="35.6"/>
	<polygon points="49.3,22.7 49.3,47.1 42.9,47.1 42.9,11.6 49.7,11.6 61.4,30.2 72.8,11.6 79.4,11.6 79.4,47.1 72.9,47.1 72.9,22.9 
		61.8,40.7 60.8,40.7 	"/>
</g>
</svg>
