<svg width="25" height="25" viewBox="0 0 25 25" fill="none" xmlns="http://www.w3.org/2000/svg">
<rect width="25" height="25" rx="5" fill="#FFF4DA"/>
<path d="M19.3125 12.5625C19.623 12.5625 19.875 12.3105 19.875 12C19.875 11.6895 19.623 11.4375 19.3125 11.4375H18.1875V10.3125H19.3125C19.623 10.3125 19.875 10.0605 19.875 9.75C19.875 9.4395 19.623 9.1875 19.3125 9.1875H18.1875V7.5C18.1875 6.56962 17.4304 5.8125 16.5 5.8125H14.8125V4.6875C14.8125 4.377 14.5605 4.125 14.25 4.125C13.9395 4.125 13.6875 4.377 13.6875 4.6875V5.8125H12.5625V4.6875C12.5625 4.377 12.3105 4.125 12 4.125C11.6895 4.125 11.4375 4.377 11.4375 4.6875V5.8125H10.3125V4.6875C10.3125 4.377 10.0605 4.125 9.75 4.125C9.4395 4.125 9.1875 4.377 9.1875 4.6875V5.8125H7.5C6.56962 5.8125 5.8125 6.56962 5.8125 7.5V9.1875H4.6875C4.377 9.1875 4.125 9.4395 4.125 9.75C4.125 10.0605 4.377 10.3125 4.6875 10.3125H5.8125V11.4375H4.6875C4.377 11.4375 4.125 11.6895 4.125 12C4.125 12.3105 4.377 12.5625 4.6875 12.5625H5.8125V13.6875H4.6875C4.377 13.6875 4.125 13.9395 4.125 14.25C4.125 14.5605 4.377 14.8125 4.6875 14.8125H5.8125V16.5C5.8125 17.4304 6.56962 18.1875 7.5 18.1875H9.1875V19.3125C9.1875 19.623 9.4395 19.875 9.75 19.875C10.0605 19.875 10.3125 19.623 10.3125 19.3125V18.1875H11.4375V19.3125C11.4375 19.623 11.6895 19.875 12 19.875C12.3105 19.875 12.5625 19.623 12.5625 19.3125V18.1875H13.6875V19.3125C13.6875 19.623 13.9395 19.875 14.25 19.875C14.5605 19.875 14.8125 19.623 14.8125 19.3125V18.1875H16.5C17.4304 18.1875 18.1875 17.4304 18.1875 16.5V14.8125H19.3125C19.623 14.8125 19.875 14.5605 19.875 14.25C19.875 13.9395 19.623 13.6875 19.3125 13.6875H18.1875V12.5625H19.3125ZM17.0625 16.5C17.0625 16.8099 16.8099 17.0625 16.5 17.0625H7.5C7.19006 17.0625 6.9375 16.8099 6.9375 16.5V7.5C6.9375 7.19006 7.19006 6.9375 7.5 6.9375H16.5C16.8099 6.9375 17.0625 7.19006 17.0625 7.5V16.5ZM10.875 10.875C10.875 11.1849 11.1276 11.4375 11.4375 11.4375H12.5625C13.4929 11.4375 14.25 12.1946 14.25 13.125C14.25 14.0554 13.4929 14.8125 12.5625 14.8125V15.375C12.5625 15.6855 12.3105 15.9375 12 15.9375C11.6895 15.9375 11.4375 15.6855 11.4375 15.375V14.8125H10.3125C10.002 14.8125 9.75 14.5605 9.75 14.25C9.75 13.9395 10.002 13.6875 10.3125 13.6875H12.5625C12.8724 13.6875 13.125 13.4349 13.125 13.125C13.125 12.8151 12.8724 12.5625 12.5625 12.5625H11.4375C10.5071 12.5625 9.75 11.8054 9.75 10.875C9.75 9.94462 10.5071 9.1875 11.4375 9.1875V8.625C11.4375 8.3145 11.6895 8.0625 12 8.0625C12.3105 8.0625 12.5625 8.3145 12.5625 8.625V9.1875H13.6875C13.998 9.1875 14.25 9.4395 14.25 9.75C14.25 10.0605 13.998 10.3125 13.6875 10.3125H11.4375C11.1276 10.3125 10.875 10.5651 10.875 10.875Z" fill="#FFAD00"/>
</svg>
