<?xml version="1.0" encoding="UTF-8"?>
<svg id="Layer_2" data-name="Layer 2" xmlns="http://www.w3.org/2000/svg" viewBox="0 0 53.79 58.31">
  <defs>
    <style>
      .cls-1 {
        fill: #141515;
        stroke-width: 0px;
      }
    </style>
  </defs>
  <g id="Ebene_1" data-name="Ebene 1">
    <g>
      <path class="cls-1" d="M27.97,0v18.76h-6.35v-9.84S0,8.92,0,8.92v2.2s0,46.24,0,46.24v.94h53.79V0h-25.82ZM1.39,56.92v-.81s0-44.99,0-44.99v-.81s18.85,0,18.85,0v.81s0,7.64,0,7.64h-7.1s0,1.89,0,1.89v35.76c0,.18,0,.51,0,.51H1.39ZM26.53,56.92v-10.46h3.24v10.46h-3.24ZM41.86,20.65v36.27s-10.59,0-10.59,0h0v-11.96h-6.24v11.96h-10.5V20.15h27.34v.51ZM52.4,2.48v54.44h-9.16s0-.51,0-.51V18.76h-13.89V1.38h23.05v1.1Z"/>
      <path class="cls-1" d="M23.67,25.82h-6.24v6.24h6.24v-6.24ZM22.17,30.56h-3.24v-3.24h3.24v3.24Z"/>
      <path class="cls-1" d="M31.27,25.82h-6.24v6.24h6.24v-6.24ZM29.77,30.56h-3.24v-3.24h3.24v3.24Z"/>
      <path class="cls-1" d="M38.97,25.82h-6.24v6.24h6.24v-6.24ZM37.47,30.56h-3.24v-3.24h3.24v3.24Z"/>
      <path class="cls-1" d="M23.67,35.38h-6.24v6.24h6.24v-6.24ZM22.17,40.12h-3.24v-3.24h3.24v3.24Z"/>
      <path class="cls-1" d="M31.27,35.38h-6.24v6.24h6.24v-6.24ZM29.77,40.12h-3.24v-3.24h3.24v3.24Z"/>
      <path class="cls-1" d="M38.97,35.38h-6.24v6.24h6.24v-6.24ZM37.47,40.12h-3.24v-3.24h3.24v3.24Z"/>
      <path class="cls-1" d="M23.67,44.96h-6.24v6.24h6.24v-6.24ZM22.17,49.7h-3.24v-3.24h3.24v3.24Z"/>
      <path class="cls-1" d="M38.97,44.96h-6.24v6.24h6.24v-6.24ZM37.47,49.7h-3.24v-3.24h3.24v3.24Z"/>
    </g>
  </g>
</svg>